
<svg width="32" height="32" viewBox="0 0 32 32" fill="none" xmlns="http://www.w3.org/2000/svg">
  <!-- S-shaped path with arrow -->
  <path d="M16 8C14 8 12 9 12 12C12 15 14 16 16 16H22C24 16 26 17 26 20C26 23 24 24 22 24H12" stroke="#000000" stroke-width="2.5" stroke-linecap="round" stroke-linejoin="round"/>
  <path d="M10 10L12 7L14 10" stroke="#000000" stroke-width="2.5" stroke-linecap="round" stroke-linejoin="round"/>
  <path d="M24 22L22 25L20 22" stroke="#000000" stroke-width="2.5" stroke-linecap="round" stroke-linejoin="round"/>
  
  <!-- Location pin -->
  <path d="M26 9C26 6.23858 28.2386 4 31 4C33.7614 4 36 6.23858 36 9C36 11.7614 31 16 31 16C31 16 26 11.7614 26 9Z" fill="#D61E30"/>
  <circle cx="31" cy="9" r="2" fill="white"/>
</svg>
