
<svg width="120" height="40" viewBox="0 0 120 40" fill="none" xmlns="http://www.w3.org/2000/svg">
  <!-- S-shaped path with arrow and location pin -->
  <path d="M30 15C28 15 26 16 26 19C26 22 28 23 30 23H36C38 23 40 24 40 27C40 30 38 31 36 31H26" stroke="#000000" stroke-width="3" stroke-linecap="round" stroke-linejoin="round"/>
  <path d="M24 17L26 14L28 17" stroke="#000000" stroke-width="3" stroke-linecap="round" stroke-linejoin="round"/>
  <path d="M38 29L36 32L34 29" stroke="#000000" stroke-width="3" stroke-linecap="round" stroke-linejoin="round"/>
  
  <!-- Route/Path icon -->
  <path d="M15 12C15 10.3431 13.6569 9 12 9C10.3431 9 9 10.3431 9 12C9 13.6569 12 17 12 17C12 17 15 13.6569 15 12Z" fill="#D61E30"/>
  <circle cx="12" cy="12" r="1.5" fill="white"/>
  
  <!-- Location pin -->
  <path d="M44 16C44 13.2386 46.2386 11 49 11C51.7614 11 54 13.2386 54 16C54 18.7614 49 23 49 23C49 23 44 18.7614 44 16Z" fill="#D61E30"/>
  <circle cx="49" cy="16" r="2" fill="white"/>
  
  <!-- Text: HEAD TRUCK (bold, larger) -->
  <text x="15" y="35" font-family="Arial, sans-serif" font-weight="bold" font-size="14" fill="#000000">HEAD</text>
  <text x="49" y="35" font-family="Arial, sans-serif" font-weight="bold" font-size="14" fill="#D61E30">TRUCK</text>
  
  <!-- Path/Route Line connecting locations -->
  <path d="M15 12C20 14 35 10 44 16" stroke="#000000" stroke-width="1.5" stroke-dasharray="3,2" stroke-linecap="round"/>
</svg>
