
<svg width="120" height="40" viewBox="0 0 120 40" fill="none" xmlns="http://www.w3.org/2000/svg">
  <!-- S-shaped path with arrow and location pin -->
  <path d="M30 15C28 15 26 16 26 19C26 22 28 23 30 23H36C38 23 40 24 40 27C40 30 38 31 36 31H26" stroke="#000000" stroke-width="3" stroke-linecap="round" stroke-linejoin="round"/>
  <path d="M24 17L26 14L28 17" stroke="#000000" stroke-width="3" stroke-linecap="round" stroke-linejoin="round"/>
  <path d="M38 29L36 32L34 29" stroke="#000000" stroke-width="3" stroke-linecap="round" stroke-linejoin="round"/>
  
  <!-- Location pin -->
  <path d="M44 16C44 13.2386 46.2386 11 49 11C51.7614 11 54 13.2386 54 16C54 18.7614 49 23 49 23C49 23 44 18.7614 44 16Z" fill="#D61E30"/>
  <circle cx="49" cy="16" r="2" fill="white"/>
  
  <!-- Text: HEAD TRUCK -->
  <path d="M15 35V28M15 31.5H20M20 35V28" stroke="#000000" stroke-width="2" stroke-linecap="round" stroke-linejoin="round"/>
  <path d="M22 28H27V31.5H22V35H27" stroke="#000000" stroke-width="2" stroke-linecap="round" stroke-linejoin="round"/>
  <path d="M29 28L33 35M33 28L29 35" stroke="#000000" stroke-width="2" stroke-linecap="round" stroke-linejoin="round"/>
  <path d="M36 28H41V35" stroke="#000000" stroke-width="2" stroke-linecap="round" stroke-linejoin="round"/>
  
  <path d="M49 28V35M49 28H54M54 28V31.5M54 31.5H49M54 31.5V35" stroke="#D61E30" stroke-width="2" stroke-linecap="round" stroke-linejoin="round"/>
  <path d="M56 28H61M58.5 28V35" stroke="#D61E30" stroke-width="2" stroke-linecap="round" stroke-linejoin="round"/>
  <path d="M62 28V35M62 28H68M68 28V35" stroke="#D61E30" stroke-width="2" stroke-linecap="round" stroke-linejoin="round"/>
  <path d="M70 35V28M70 28L76 35M76 35V28" stroke="#D61E30" stroke-width="2" stroke-linecap="round" stroke-linejoin="round"/>
  <path d="M78 28H84V31.5H81V35" stroke="#D61E30" stroke-width="2" stroke-linecap="round" stroke-linejoin="round"/>
</svg>
