
<svg width="120" height="40" viewBox="0 0 120 40" fill="none" xmlns="http://www.w3.org/2000/svg">
  <!-- Background Shield -->
  <path d="M10 5H110C112.761 5 115 7.23858 115 10V30C115 32.7614 112.761 35 110 35H10C7.23858 35 5 32.7614 5 30V10C5 7.23858 7.23858 5 10 5Z" fill="black"/>
  
  <!-- Red Racing Stripe -->
  <rect x="5" y="15" width="110" height="10" fill="#D61E30"/>
  
  <!-- Truck Icon Stylized -->
  <path d="M25 28H50V16H25V28Z" fill="#D61E30"/>
  <path d="M50 28H60V20L57 16H50V28Z" fill="#D61E30"/>
  <circle cx="32" cy="31" r="4" fill="#F7F74A"/>
  <circle cx="52" cy="31" r="4" fill="#F7F74A"/>
  
  <!-- Text: HEAD TRUCK -->
  <path d="M65 16V28M65 22H75M75 16V28" stroke="white" stroke-width="2.5" stroke-linecap="round" stroke-linejoin="round"/>
  <path d="M80 16V28M80 16H88M88 16V22M88 22H80M88 22V28H80" stroke="white" stroke-width="2.5" stroke-linecap="round" stroke-linejoin="round"/>
  
  <!-- Speed Lines -->
  <path d="M95 20L105 20" stroke="#F7F74A" stroke-width="2" stroke-linecap="round"/>
  <path d="M98 24L105 24" stroke="#F7F74A" stroke-width="2" stroke-linecap="round"/>
</svg>
